# xmcd
#
# Track frame offsets:
#	150
#	1595
#	11484
#	22614
#	36811
#	39208
#	62415
#	85417
#	111321
#	125631
#	134063
#	147965
#	158042
#	168141
#	170811
#	173773
#	188870
#	215369
#	232924
#	246148
#	268948
#	297312
#	307682
#
# Disc length: 4429 seconds
#
# Revision: 2
# Processed by: cddbd v1.4PL0 Copyright (c) Steve Scherf et al.
# Submitted via: EZCDDA 4.3.2
#
DISCID=2d114b17
DTITLE=Violent Femmes - Add it up
DYEAR=1900
DGENRE=
TTITLE0=Into
TTITLE1=Waiting for the Bus
TTITLE2=Blister in the sun
TTITLE3=Gone Daddy gone
TTITLE4=Gordens Message
TTITLE5=gimme the Car
TTITLE6=Country death sound
TTITLE7=Black Girls
TTITLE8=Jesus walking on the Water
TTITLE9=10 36 24 36
TTITLE10=I held her in my Arms
TTITLE11=I hate the Tv
TTITLE12=America is
TTITLE13=Old Mother Reagen
TTITLE14=Dekradation
TTITLE15=Dance M. F. dance
TTITLE16=Lies
TTITLE17=American Music
TTITLE18=Out the Windows
TTITLE19=20 Kiss off
TTITLE20=Add it up
TTITLE21=Vancouver
TTITLE22=Johnny
EXTD=
EXTT0=
EXTT1=
EXTT2=
EXTT3=
EXTT4=
EXTT5=
EXTT6=
EXTT7=
EXTT8=
EXTT9=
EXTT10=
EXTT11=
EXTT12=
EXTT13=
EXTT14=
EXTT15=
EXTT16=
EXTT17=
EXTT18=
EXTT19=
EXTT20=
EXTT21=
EXTT22=
PLAYORDER=
